<svg xmlns="http://www.w3.org/2000/svg" version="1.1" xmlns:xlink="http://www.w3.org/1999/xlink" xmlns:svgjs="http://svgjs.dev/svgjs" width="1500" height="1500" viewBox="0 0 1500 1500"><rect width="1500" height="1500" fill="#ffffff"></rect><g transform="matrix(0.6666666666666666,0,0,0.6666666666666666,249.6973587674247,88.53978494623658)"><svg viewBox="0 0 188 248" data-background-color="#575c5f" preserveAspectRatio="xMidYMid meet" height="1978" width="1500" xmlns="http://www.w3.org/2000/svg" xmlns:xlink="http://www.w3.org/1999/xlink"><g id="tight-bounds" transform="matrix(1,0,0,1,0.05689655172415087,0.4000000000000057)"><svg viewBox="0 0 187.8862068965517 247.2" height="247.2" width="187.8862068965517"><g><svg viewBox="0 0 187.8862068965517 247.2" height="247.2" width="187.8862068965517"><g><svg viewBox="0 0 187.8862068965517 247.2" height="247.2" width="187.8862068965517"><g id="textblocktransform"><svg viewBox="0 0 187.8862068965517 247.2" height="247.2" width="187.8862068965517" id="textblock"><g><svg viewBox="0 0 187.8862068965517 247.2" height="247.2" width="187.8862068965517"><g transform="matrix(1,0,0,1,0,0)"><svg width="187.8862068965517" viewBox="4 -34.65 26.45 34.8" height="247.2" data-palette-color="#dedad7"><path d="M24.35-33.85L30.45-34.6 29.8-13 30.35-1.1 24.45 0.15 9.55-23.95 9.55-13 10.25 0 4 0 4.6-12.15 4-34.35 10-34.65 24.85-10.2 24.35-33.85Z" opacity="1" transform="matrix(1,0,0,1,0,0)" fill="#000000" class="wordmark-text-0" data-fill-palette-color="primary" id="text-0"></path></svg></g></svg></g></svg></g></svg></g></svg></g><defs></defs></svg><rect width="187.8862068965517" height="247.2" fill="none" stroke="none" visibility="hidden"></rect></g></svg></g></svg>